<?xml version="1.0" encoding="UTF-8" standalone="yes"?>
<svg
    viewBox="0 0 34.782712 30.477422"
    version="1.1"
    id="svg5"
    xmlns="http://www.w3.org/2000/svg"
    xmlns:svg="http://www.w3.org/2000/svg">
    <style>
        /* Hide all layers by default */
        svg g {
        display: none;
        }

        /* Show only the targeted layer */
        svg g:target {
        display: initial;
        color:white;
        }
    </style>
    <defs
        id="defs2" />
    <g
        id="Forward"
        transform="translate(-142.36789,-89.285958)"
    >
        <path
            d="m 161.87097,187.80888 q 0,1.27996 -0.43075,2.27685 -0.43076,0.99689 -1.21843,1.6861 -0.78766,0.6769 -1.88301,1.03381 -1.08304,0.35691 -2.41222,0.35691 -0.73844,0 -1.40303,-0.11077 -0.6646,-0.0985 -1.1815,-0.24614 -0.51691,-0.16 -0.8492,-0.30768 -0.3323,-0.14769 -0.43076,-0.23384 -0.0862,-0.0862 -0.12307,-0.16 -0.0369,-0.0738 -0.0738,-0.1723 -0.0246,-0.11076 -0.0369,-0.27076 -0.0123,-0.15999 -0.0123,-0.38152 0,-0.20923 0.0123,-0.36922 0.0246,-0.1723 0.0739,-0.27076 0.0492,-0.11077 0.11076,-0.16 0.0738,-0.0492 0.16,-0.0492 0.12307,0 0.38152,0.16 0.25846,0.14769 0.68921,0.3323 0.44306,0.1723 1.08304,0.33229 0.65229,0.16 1.53841,0.16 0.82459,0 1.51379,-0.19692 0.68921,-0.19692 1.1815,-0.61536 0.5046,-0.41845 0.78767,-1.04612 0.28307,-0.63998 0.28307,-1.55072 0,-0.76305 -0.24615,-1.34149 -0.23384,-0.59075 -0.73844,-0.97228 -0.49229,-0.39383 -1.25534,-0.57844 -0.76305,-0.19692 -1.82148,-0.19692 -0.75074,0 -1.29226,0.0738 -0.54152,0.0738 -1.0092,0.0738 -0.3446,0 -0.49229,-0.15999 -0.14768,-0.16 -0.14768,-0.61537 v -6.48593 q 0,-0.40614 0.18461,-0.60306 0.19691,-0.19691 0.55382,-0.19691 h 7.05207 q 0.0985,0 0.18461,0.0615 0.0985,0.0492 0.16,0.16 0.0615,0.11076 0.0862,0.28307 0.0369,0.1723 0.0369,0.40614 0,0.44306 -0.12307,0.6892 -0.12308,0.24615 -0.34461,0.24615 h -5.94441 v 4.46754 q 0.43075,-0.0615 0.87381,-0.0738 0.45537,-0.0123 1.04612,-0.0123 1.36611,0 2.38761,0.33229 1.02151,0.31999 1.69841,0.92305 0.68921,0.59075 1.03381,1.43995 0.35691,0.8492 0.35691,1.88301 z"
            id="path594"
            style="fill:currentColor"
            transform="matrix(0.80485057,0,0,0.80585144,30.812251,-44.625801)" />
        <path
            d="m 68.280702,167.18806 q 0.05064,0.26527 0.180868,0.49437 0.130225,0.22669 0.320739,0.39309 0.192926,0.1664 0.434083,0.26286 0.243569,0.0941 0.516077,0.0941 0.301446,0 0.564307,-0.12058 0.262862,-0.12299 0.458199,-0.33038 0.197749,-0.20981 0.311093,-0.48955 0.113344,-0.28215 0.113344,-0.60048 0,-0.31833 -0.113344,-0.59807 -0.113344,-0.28216 -0.311093,-0.49196 -0.195337,-0.20981 -0.458199,-0.33039 -0.262861,-0.12299 -0.564307,-0.12299 -0.253216,0 -0.484727,0.0772 -0.23151,0.0748 -0.419613,0.21463 -0.185691,0.13746 -0.320739,0.3328 -0.132637,0.19534 -0.192926,0.43649 l 0.01929,0.005 0.817523,-0.36897 0.09405,0.16881 -1.121381,0.69935 -0.147106,-0.0362 -0.668006,-1.14068 0.163987,-0.10369 0.547427,0.69694 q 0.06511,-0.28939 0.219453,-0.52572 0.154341,-0.23875 0.376206,-0.40756 0.224276,-0.17122 0.50643,-0.26527 0.282154,-0.0941 0.600481,-0.0941 0.248392,0 0.477492,0.0675 0.229099,0.0651 0.429259,0.18569 0.200161,0.12058 0.364148,0.28939 0.163987,0.16881 0.279742,0.37621 0.118167,0.20498 0.180868,0.44373 0.06511,0.23633 0.06511,0.49196 0,0.25562 -0.06511,0.49196 -0.0627,0.23633 -0.180868,0.44373 -0.115755,0.20498 -0.279742,0.37379 -0.163987,0.16881 -0.364148,0.28939 -0.20016,0.12058 -0.429259,0.18569 -0.2291,0.0675 -0.477492,0.0675 -0.342443,0 -0.641478,-0.12058 -0.299035,-0.11817 -0.532957,-0.32315 -0.233923,-0.2074 -0.388264,-0.48232 -0.15434,-0.27733 -0.207395,-0.59325 z"
            id="path597"
            style="fill:white"
            transform="matrix(-8.2121778,0,0,8.2223899,729.80044,-1267.7131)" />
    </g>
    <g
        id="Rewind"
        transform="translate(-1.6034545e-5)">
        <path
            d="m 97.521666,186.67278 q 0,1.27995 -0.430755,2.27684 -0.430755,0.99689 -1.21842,1.6861 -0.787666,0.6769 -1.883013,1.03381 -1.083041,0.35691 -2.412226,0.35691 -0.738437,0 -1.40303,-0.11076 -0.664593,-0.0985 -1.181498,-0.24615 -0.516906,-0.15999 -0.849202,-0.30768 -0.332296,-0.14769 -0.430755,-0.23384 -0.08615,-0.0861 -0.123072,-0.15999 -0.03692,-0.0738 -0.07384,-0.17231 -0.02461,-0.11076 -0.03692,-0.27076 -0.01231,-0.15999 -0.01231,-0.38152 0,-0.20923 0.01231,-0.36922 0.02462,-0.1723 0.07384,-0.27076 0.04923,-0.11077 0.110765,-0.16 0.07384,-0.0492 0.159995,-0.0492 0.123073,0 0.381525,0.15999 0.258453,0.14769 0.689208,0.3323 0.443062,0.1723 1.08304,0.33229 0.652286,0.16 1.538409,0.16 0.824588,0 1.513795,-0.19692 0.689208,-0.19692 1.181499,-0.61536 0.504598,-0.41845 0.787665,-1.04612 0.283067,-0.63998 0.283067,-1.55072 0,-0.76305 -0.246145,-1.34149 -0.233838,-0.59075 -0.738437,-0.97228 -0.492291,-0.39383 -1.255342,-0.57844 -0.763051,-0.19691 -1.821476,-0.19691 -0.750744,0 -1.292264,0.0738 -0.54152,0.0738 -1.009197,0.0738 -0.344603,0 -0.492291,-0.15999 -0.147687,-0.16 -0.147687,-0.61536 v -6.48594 q 0,-0.40614 0.184609,-0.60306 0.196917,-0.19691 0.553827,-0.19691 h 7.052069 q 0.09846,0 0.184609,0.0615 0.09846,0.0492 0.159995,0.16 0.06154,0.11077 0.08615,0.28307 0.03692,0.1723 0.03692,0.40614 0,0.44306 -0.123073,0.6892 -0.123073,0.24615 -0.344604,0.24615 h -5.944414 v 4.46754 q 0.430755,-0.0615 0.873817,-0.0738 0.455369,-0.0123 1.046118,-0.0123 1.366108,0 2.387612,0.3323 1.021503,0.31999 1.698403,0.92304 0.689208,0.59075 1.033812,1.43995 0.356911,0.8492 0.356911,1.88302 z"
            id="path600"
            style="fill:white "
            transform="matrix(0.80961032,0,0,0.80585144,-54.493871,-132.99623)" />
        <path
            d="m 68.280702,167.18806 q 0.05064,0.26527 0.180868,0.49437 0.130225,0.22669 0.320739,0.39309 0.192926,0.1664 0.434083,0.26286 0.243569,0.0941 0.516077,0.0941 0.301446,0 0.564307,-0.12058 0.262862,-0.12299 0.458199,-0.33038 0.197749,-0.20981 0.311093,-0.48955 0.113344,-0.28215 0.113344,-0.60048 0,-0.31833 -0.113344,-0.59807 -0.113344,-0.28216 -0.311093,-0.49196 -0.195337,-0.20981 -0.458199,-0.33039 -0.262861,-0.12299 -0.564307,-0.12299 -0.253216,0 -0.484727,0.0772 -0.23151,0.0748 -0.419613,0.21463 -0.185691,0.13746 -0.320739,0.3328 -0.132637,0.19534 -0.192926,0.43649 l 0.01929,0.005 0.817523,-0.36897 0.09405,0.16881 -1.121381,0.69935 -0.147106,-0.0362 -0.668006,-1.14068 0.163987,-0.10369 0.547427,0.69694 q 0.06511,-0.28939 0.219453,-0.52572 0.154341,-0.23875 0.376206,-0.40756 0.224276,-0.17122 0.50643,-0.26527 0.282154,-0.0941 0.600481,-0.0941 0.248392,0 0.477492,0.0675 0.229099,0.0651 0.429259,0.18569 0.200161,0.12058 0.364148,0.28939 0.163987,0.16881 0.279742,0.37621 0.118167,0.20498 0.180868,0.44373 0.06511,0.23633 0.06511,0.49196 0,0.25562 -0.06511,0.49196 -0.0627,0.23633 -0.180868,0.44373 -0.115755,0.20498 -0.279742,0.37379 -0.163987,0.16881 -0.364148,0.28939 -0.20016,0.12058 -0.429259,0.18569 -0.2291,0.0675 -0.477492,0.0675 -0.342443,0 -0.641478,-0.12058 -0.299035,-0.11817 -0.532957,-0.32315 -0.233923,-0.2074 -0.388264,-0.48232 -0.15434,-0.27733 -0.207395,-0.59325 z"
            id="path603"
            style="fill:white"
            transform="matrix(8.2607431,0,0,8.2223899,-556.02097,-1356.999)" />
    </g>
    <g
        id="Pause"
        transform="translate(-1.6034545e-5)">
        <path
            d="m 99.11406,119.7275 c 0,-10.21869 0,-20.437386 0,-30.656079 -10.218694,0 -20.437387,0 -30.656081,0 0,10.218693 0,20.437389 0,30.656079 10.218694,0 20.437387,0 30.656081,0 z m -9.858093,-7.66402 c -0.726279,0 -1.452558,0 -2.178837,0 0,-5.10935 0,-10.21869 0,-15.328039 0.726279,0 1.452558,0 2.178837,0 0,5.109349 0,10.218689 0,15.328039 z m -8.761057,0 c -0.726279,0 -1.452558,0 -2.178837,0 0,-5.10935 0,-10.21869 0,-15.328039 0.726279,0 1.452558,0 2.178837,0 0,5.109349 0,10.218689 0,15.328039 z"
            id="path484"
            style="fill:white"
            transform="matrix(0.99415837,0,0,0.99415845,-65.905216,-88.550896)" />
    </g>
    <g
        id="Play"
        transform="translate(-1.6034545e-5)">
        <path
            d="M 105.59731,119.55912 V 89.081699 l 30.47742,15.238711 z"
            id="path591"
            style="fill:white"
            transform="translate(-103.44466,-89.081701)" />
    </g>
</svg>