<?xml version="1.0" encoding="UTF-8"?>
<svg id="svg5" version="1.1" viewBox="0 0 35 31" xmlns="http://www.w3.org/2000/svg">
   <style id="style791">
      /* Hide all layers by default */
      svg g {
      display: none;
      }

      /* Show only the targeted layer */
      svg g:target {
      display: initial;
      fill: #FFFFFF;
      color:white;
      }

   </style>
   <g id="Forward"
      style="paint-order:markers stroke fill;stroke-linecap:square;stroke-miterlimit:3;stroke-width:.5;stroke:#000">
      <path id="path597"
         d="m26 18q-0.4 2.1-1.4 3.9-1 1.8-2.5 3.1-1.5 1.3-3.5 2.1-1.9 0.75-4.1 0.75-2.4 0-4.5-0.96-2.1-0.98-3.6-2.6-1.6-1.7-2.5-3.9-0.9-2.2-0.9-4.8t0.9-4.8q0.9-2.2 2.5-3.9 1.6-1.7 3.6-2.6 2.1-0.98 4.5-0.98 2 0 3.9 0.61 1.8 0.59 3.3 1.7 1.5 1.1 2.5 2.6 1.1 1.6 1.5 3.5l-0.15 0.04-6.5-2.9-0.75 1.3 8.9 5.6 1.2-0.29 5.3-9.1-1.3-0.82-4.4 5.5q-0.52-2.3-1.7-4.2-1.2-1.9-3-3.2-1.8-1.4-4-2.1-2.2-0.75-4.8-0.75-2 0-3.8 0.54-1.8 0.52-3.4 1.5-1.6 0.96-2.9 2.3-1.3 1.3-2.2 3-0.94 1.6-1.4 3.5-0.52 1.9-0.52 3.9 0 2 0.52 3.9 0.5 1.9 1.4 3.5 0.92 1.6 2.2 3 1.3 1.3 2.9 2.3 1.6 0.96 3.4 1.5 1.8 0.54 3.8 0.54 2.7 0 5.1-0.96 2.4-0.94 4.2-2.6 1.9-1.6 3.1-3.8 1.2-2.2 1.6-4.7z"
         style="fill:currentColor;paint-order:markers stroke fill;stroke-linecap:square;stroke-miterlimit:3;stroke-width:.5;stroke:#000" />
      <path id="path594"
         d="m19 18q0 1.1-0.36 1.9-0.36 0.84-1 1.4-0.67 0.57-1.6 0.87-0.92 0.3-2 0.3-0.62 0-1.2-0.094-0.56-0.083-1-0.21-0.44-0.14-0.72-0.26-0.28-0.12-0.36-0.2-0.073-0.073-0.1-0.14-0.031-0.062-0.062-0.15-0.021-0.094-0.031-0.23-0.01-0.14-0.01-0.32 0-0.18 0.01-0.31 0.021-0.15 0.062-0.23 0.042-0.094 0.094-0.14 0.062-0.042 0.14-0.042 0.1 0 0.32 0.14 0.22 0.12 0.58 0.28 0.37 0.15 0.92 0.28 0.55 0.14 1.3 0.14 0.7 0 1.3-0.17 0.58-0.17 1-0.52 0.43-0.35 0.67-0.88 0.24-0.54 0.24-1.3 0-0.65-0.21-1.1-0.2-0.5-0.62-0.82-0.42-0.33-1.1-0.49-0.65-0.17-1.5-0.17-0.63 0-1.1 0.062-0.46 0.062-0.85 0.062-0.29 0-0.42-0.14-0.12-0.14-0.12-0.52v-5.5q0-0.34 0.16-0.51 0.17-0.17 0.47-0.17h6q0.083 0 0.16 0.052 0.083 0.042 0.14 0.14 0.052 0.094 0.073 0.24 0.031 0.15 0.031 0.34 0 0.37-0.1 0.58-0.1 0.21-0.29 0.21h-5v3.8q0.36-0.052 0.74-0.062 0.39-0.01 0.88-0.01 1.2 0 2 0.28 0.86 0.27 1.4 0.78 0.58 0.5 0.87 1.2 0.3 0.72 0.3 1.6z"
         style="paint-order:markers stroke fill;stroke-linecap:square;stroke-miterlimit:3;stroke-width:.5;stroke:#000" />
   </g>
   <g id="Rewind"
      style="fill:currentColor;paint-order:markers stroke fill;stroke-linecap:square;stroke-miterlimit:3;stroke-width:.5;stroke:#000">
      <path id="path603"
         d="m8.4 18q0.4 2.1 1.4 3.9 1 1.8 2.5 3.1 1.5 1.3 3.4 2.1 1.9 0.75 4.1 0.75 2.4 0 4.5-0.96 2.1-0.98 3.6-2.6 1.6-1.7 2.5-3.9 0.9-2.2 0.9-4.8 0-2.5-0.9-4.7-0.9-2.2-2.5-3.9-1.5-1.7-3.6-2.6-2.1-0.98-4.5-0.98-2 0-3.8 0.61-1.8 0.59-3.3 1.7-1.5 1.1-2.5 2.6-1.1 1.5-1.5 3.5l0.15 0.04 6.5-2.9 0.75 1.3-8.9 5.5-1.2-0.29-5.3-9 1.3-0.82 4.3 5.5q0.52-2.3 1.7-4.2 1.2-1.9 3-3.2 1.8-1.4 4-2.1 2.2-0.75 4.8-0.75 2 0 3.8 0.54 1.8 0.52 3.4 1.5 1.6 0.96 2.9 2.3 1.3 1.3 2.2 3 0.94 1.6 1.4 3.5 0.52 1.9 0.52 3.9 0 2-0.52 3.9-0.5 1.9-1.4 3.5-0.92 1.6-2.2 3-1.3 1.3-2.9 2.3-1.6 0.96-3.4 1.5-1.8 0.54-3.8 0.54-2.7 0-5.1-0.96-2.4-0.94-4.2-2.6-1.9-1.6-3.1-3.8-1.2-2.2-1.6-4.7z"
         style="paint-order:markers stroke fill;stroke-linecap:square;stroke-miterlimit:3;stroke-width:.5;stroke:#000" />
      <path id="path594-1"
         d="m25 18q0 1.1-0.36 1.9-0.36 0.84-1 1.4-0.67 0.57-1.6 0.87-0.92 0.3-2 0.3-0.62 0-1.2-0.094-0.56-0.083-1-0.21-0.44-0.14-0.72-0.26-0.28-0.12-0.36-0.2-0.073-0.073-0.1-0.14-0.031-0.062-0.062-0.15-0.021-0.094-0.031-0.23-0.01-0.14-0.01-0.32 0-0.18 0.01-0.31 0.021-0.15 0.062-0.23 0.042-0.094 0.094-0.14 0.062-0.042 0.14-0.042 0.1 0 0.32 0.14 0.22 0.12 0.58 0.28 0.37 0.15 0.92 0.28 0.55 0.14 1.3 0.14 0.7 0 1.3-0.17 0.58-0.17 1-0.52 0.43-0.35 0.67-0.88 0.24-0.54 0.24-1.3 0-0.65-0.21-1.1-0.2-0.5-0.62-0.82-0.42-0.33-1.1-0.49-0.65-0.17-1.5-0.17-0.63 0-1.1 0.062-0.46 0.062-0.85 0.062-0.29 0-0.42-0.14-0.12-0.14-0.12-0.52v-5.5q0-0.34 0.16-0.51 0.17-0.17 0.47-0.17h6q0.083 0 0.16 0.052 0.083 0.042 0.14 0.14 0.052 0.094 0.073 0.24 0.031 0.15 0.031 0.34 0 0.37-0.1 0.58-0.1 0.21-0.29 0.21h-5v3.8q0.36-0.052 0.74-0.062 0.39-0.01 0.88-0.01 1.2 0 2 0.28 0.86 0.27 1.4 0.78 0.58 0.5 0.87 1.2 0.3 0.72 0.3 1.6z"
         style="fill:currentColor;paint-order:markers stroke fill;stroke-linecap:square;stroke-miterlimit:3;stroke-width:.5;stroke:#000" />
   </g>
   <g id="Pause"
      style="paint-order:markers stroke fill;stroke-linecap:square;stroke-miterlimit:3;stroke-width:.5;stroke:#000">
      <path id="path484" d="m33 31v-31h-31v31h31zm-9.9-7.7h-2.2v-15h2.2v15zm-8.8 0h-2.2v-15h2.2v15z"
         style="paint-order:markers stroke fill;stroke-linecap:square;stroke-miterlimit:3;stroke-width:.5;stroke:#000" />
   </g>
   <g id="Play"
      style="paint-order:markers stroke fill;stroke-linecap:square;stroke-miterlimit:3;stroke-width:.5;stroke:#000">
      <path id="path591" d="m2 30v-30l30 15z"
         style="paint-order:markers stroke fill;stroke-linecap:square;stroke-miterlimit:3;stroke-width:.5;stroke:#000" />
   </g>
   <g id="Speaker"
   transform="translate(0,4)"
      style="paint-order:markers stroke fill;stroke-linecap:square;stroke-miterlimit:3;stroke-width:.5;stroke:#000">
      <path id="path811"
         d="m25 23q1.6-1.6 2.4-3.6t0.79-4.1-0.79-4.1q-0.79-2-2.4-3.6-0.33-0.31-0.77-0.31-0.2 0-0.39 0.074-0.2 0.074-0.33 0.24-0.35 0.29-0.35 0.75 0 0.46 0.35 0.75 1.3 1.3 1.9 2.9 0.63 1.6 0.63 3.3t-0.63 3.3q-0.64 1.6-1.9 2.9-0.33 0.33-0.33 0.77 0 0.46 0.35 0.75 0.31 0.31 0.74 0.31 0.44 0 0.75-0.31zm-3.7-2.8q0.99-0.99 1.5-2.3 0.51-1.3 0.51-2.7 0-1.4-0.51-2.6-0.51-1.3-1.5-2.3-0.18-0.15-0.37-0.24-0.2-0.092-0.4-0.092-0.2 0-0.4 0.092-0.2 0.092-0.37 0.24-0.31 0.31-0.31 0.75 0 0.42 0.31 0.77 0.68 0.68 1.1 1.5 0.39 0.85 0.39 1.8t-0.39 1.8-1.1 1.6q-0.31 0.31-0.31 0.75 0 0.42 0.31 0.77 0.35 0.31 0.77 0.31 0.42 0 0.77-0.31zm7.3 5.4q2.1-2.1 3.2-4.7 1.1-2.7 1.1-5.6 0-2.9-1.1-5.6-1.1-2.7-3.2-4.7-0.33-0.31-0.77-0.31-0.46 0-0.77 0.31t-0.31 0.75q0 0.42 0.33 0.75 1.8 1.8 2.7 4 0.94 2.3 0.94 4.8 0 2.5-0.94 4.8-0.94 2.3-2.7 4-0.31 0.35-0.31 0.79 0 0.4 0.31 0.75 0.29 0.29 0.75 0.29 0.44 0 0.79-0.29zm-12 1.4q0.44 0.33 0.83 0.33 0.35 0 0.55-0.28 0.2-0.29 0.2-0.83v-22q0-0.53-0.22-0.81-0.22-0.29-0.57-0.29-0.4 0-0.83 0.35-1.9 1.5-3.4 2.6-0.64 0.5-1.3 0.97-0.61 0.46-1.1 0.83-0.5 0.37-0.79 0.61-0.31 0.24-0.33 0.24h-7.2q-0.17 0-0.28 0.17-0.13 0.15-0.13 0.35v12q0 0.2 0.13 0.33 0.11 0.11 0.28 0.11h7.3q0 0.018 0.31 0.26 0.29 0.24 0.77 0.63 0.48 0.37 1.1 0.85 0.61 0.46 1.3 0.96 1.5 1.1 3.4 2.6z"
         style="paint-order:markers stroke fill;stroke-linecap:square;stroke-miterlimit:3;stroke-width:.5;stroke:#000" />
   </g>
</svg>