<?xml version="1.0" encoding="UTF-8" standalone="no"?>
<svg
    viewBox="0 0 34.782712 30.477422"
    version="1.1"
    id="svg5"
    xmlns="http://www.w3.org/2000/svg"
    xmlns:svg="http://www.w3.org/2000/svg">
    <style
        id="style791">
        /* Hide all layers by default */
        svg g {
        display: none;
        }

        /* Show only the targeted layer */
        svg g:target {
        display: initial;
        color:white;
        }</style>
    <defs
        id="defs2" />
    <g
        id="Forward">
        <path
            d="m 26.401681,17.605143 q -0.402567,2.108786 -1.437826,3.930036 -1.035234,1.802091 -2.549742,3.124902 -1.533681,1.322811 -3.450779,2.089628 -1.936272,0.748056 -4.102597,0.748056 -2.396371,0 -4.486006,-0.958561 Q 8.2850865,25.561485 6.732239,23.912821 5.1602164,22.244918 4.2591788,20.021101 3.3581412,17.778126 3.3581412,15.247535 q 0,-2.530591 0.9010376,-4.754408 0.9010376,-2.2430544 2.4730602,-3.9108772 1.5528475,-1.6679022 3.642492,-2.6264631 2.089635,-0.9777194 4.486006,-0.9777194 2.012961,0 3.853378,0.6137079 1.840408,0.5946289 3.335749,1.7062193 1.476166,1.0927498 2.549741,2.6456216 1.054409,1.5528719 1.533682,3.4699139 l -0.153348,0.03975 -6.498968,-2.933159 -0.747658,1.3419694 8.914513,5.5595416 1.169431,-0.287776 5.31037,-9.0679306 -1.303628,-0.8242924 -4.351817,5.540383 Q 27.954584,8.4814851 26.727622,6.6027598 25.500675,4.7047965 23.73694,3.3628272 21.954039,2.0016993 19.711033,1.2540409 17.468025,0.50598502 14.937458,0.50598502 q -1.974613,0 -3.795862,0.53659698 Q 9.320353,1.5601 7.7291642,2.5187403 6.1379676,3.4773012 4.8343391,4.8192705 3.5307105,6.1612399 2.6105066,7.8099837 1.6711277,9.4394894 1.1726811,11.337452 0.65508362,13.216178 0.65508362,15.24833 q 0,2.032073 0.51759748,3.910877 0.4984388,1.878726 1.4378255,3.52747 0.9202039,1.629506 2.2238325,2.971475 1.3036285,1.341968 2.8948251,2.30053 1.5911888,0.958561 3.4124318,1.476158 1.821249,0.536597 3.795862,0.536597 2.722279,0 5.099484,-0.958561 2.377203,-0.939402 4.236786,-2.568908 1.859591,-1.648744 3.086538,-3.834243 1.226939,-2.204659 1.648704,-4.716091 z"
            id="path597"
            style="fill:#ffffff;" />
        <path
            d="m 18.830275,17.544265 q 0,1.082511 -0.364302,1.925618 -0.36431,0.843108 -1.030472,1.425999 -0.666154,0.57248 -1.592534,0.874333 -0.915968,0.301852 -2.040106,0.301852 -0.624527,0 -1.186596,-0.09368 -0.562077,-0.08331 -0.999239,-0.20817 -0.437171,-0.135318 -0.718201,-0.260217 -0.281039,-0.124907 -0.36431,-0.197767 -0.0729,-0.0729 -0.104085,-0.135318 -0.03121,-0.06242 -0.06241,-0.145721 -0.0208,-0.09367 -0.03121,-0.228992 -0.0104,-0.13531 -0.0104,-0.322666 0,-0.176954 0.0104,-0.312264 0.0208,-0.14572 0.0625,-0.228992 0.04161,-0.09368 0.09367,-0.135318 0.06242,-0.04161 0.135318,-0.04161 0.104085,0 0.322666,0.135318 0.218589,0.124907 0.582891,0.281039 0.374713,0.145721 0.915968,0.28103 0.551667,0.135318 1.301092,0.135318 0.697387,0 1.28027,-0.166542 0.582891,-0.166543 0.999239,-0.520434 0.42676,-0.353899 0.666163,-0.884743 0.239403,-0.541256 0.239403,-1.311503 0,-0.645341 -0.208179,-1.134549 -0.197767,-0.49962 -0.624526,-0.822294 -0.416349,-0.333077 -1.061689,-0.489209 -0.645341,-0.166543 -1.540495,-0.166543 -0.634929,0 -1.092914,0.06242 -0.457984,0.06242 -0.853518,0.06242 -0.291442,0 -0.416349,-0.13531 -0.124899,-0.135329 -0.124899,-0.520452 V 9.0819206 q 0,-0.343488 0.156132,-0.5100307 0.166535,-0.1665343 0.468387,-0.1665343 h 5.964204 q 0.0833,0 0.156131,0.052013 0.08331,0.04161 0.135319,0.1353181 0.05201,0.093674 0.0729,0.239403 0.03121,0.1457207 0.03121,0.3434881 0,0.3747126 -0.104085,0.5828826 -0.104094,0.2081784 -0.29145,0.2081784 h -5.027413 v 3.7783682 q 0.364301,-0.05201 0.739014,-0.06242 0.385124,-0.0104 0.884743,-0.0104 1.155372,0 2.019293,0.28103 0.86393,0.270628 1.43641,0.780658 0.582891,0.49962 0.874332,1.217821 0.301853,0.718201 0.301853,1.592533 z"
            id="path594"
            style="fill:#ffffff;" />
    </g>
    <g
        id="Rewind"
    >
        <path
            d="m 8.3846225,17.658239 q 0.4017561,2.104538 1.4349292,3.922119 1.0331493,1.798462 2.5446053,3.118608 1.530593,1.320146 3.443829,2.085418 1.932372,0.74655 4.094333,0.74655 2.391544,0 4.476971,-0.95663 2.085434,-0.97575 3.635154,-2.621094 1.568856,-1.664542 2.468078,-3.88388 0.899223,-2.238457 0.899223,-4.76395 0,-2.525494 -0.899223,-4.744831 Q 29.5833,8.3220119 28.014444,6.6575486 26.464724,4.993006 24.37929,4.036376 q -2.085427,-0.97575 -4.476971,-0.97575 -2.008906,0 -3.845615,0.6124717 -1.836701,0.5934312 -3.32903,1.7027825 Q 11.254481,6.4664289 10.183068,8.0161728 9.1307828,9.5659166 8.6524758,11.479097 L 8.8055143,11.518765 15.291391,8.5915154 16.037544,9.9307816 7.1409875,15.479125 5.9739116,15.191929 0.67423825,6.1422632 1.9752408,5.3196312 6.3182921,10.848855 Q 6.8348469,8.5529582 8.0593382,6.6780173 9.2838134,4.7838771 11.043996,3.4446109 q 1.779309,-1.3583861 4.017798,-2.1045385 2.238489,-0.74654908 4.763959,-0.74654908 1.970636,0 3.788217,0.53551608 1.817573,0.5164755 3.405557,1.4731849 1.587991,0.95663 2.888993,2.2958962 1.301003,1.3392663 2.219354,2.984689 0.937486,1.6262234 1.434929,3.5203635 0.516555,1.874941 0.516555,3.903 0,2.027979 -0.516555,3.903 -0.497435,1.87494 -1.434929,3.520363 -0.918351,1.626224 -2.219354,2.96549 -1.301002,1.339266 -2.888993,2.295897 -1.587984,0.956629 -3.405557,1.473184 -1.817581,0.535517 -3.788217,0.535517 -2.716796,0 -5.089212,-0.956631 -2.372416,-0.93751 -4.228252,-2.563734 -1.8558451,-1.645422 -3.0803204,-3.82652 -1.2244674,-2.200217 -1.645383,-4.706591 z"
            id="path603"
            style="fill:#ffffff;stroke:none;stroke-width:7.93357" />
        <path
            d="m 25.198085,17.544265 q 0,1.082511 -0.364302,1.925618 -0.36431,0.843108 -1.030472,1.425999 -0.666154,0.57248 -1.592534,0.874333 -0.915968,0.301852 -2.040106,0.301852 -0.624527,0 -1.186596,-0.09368 -0.562077,-0.08331 -0.999239,-0.20817 -0.437171,-0.135318 -0.718201,-0.260217 -0.281039,-0.124907 -0.36431,-0.197767 -0.0729,-0.0729 -0.104085,-0.135318 -0.03121,-0.06242 -0.06241,-0.145721 -0.0208,-0.09367 -0.03121,-0.228992 -0.0104,-0.13531 -0.0104,-0.322666 0,-0.176954 0.0104,-0.312264 0.0208,-0.14572 0.0625,-0.228992 0.04161,-0.09368 0.09367,-0.135318 0.06242,-0.04161 0.135318,-0.04161 0.104085,0 0.322666,0.135318 0.218589,0.124907 0.582891,0.281039 0.374713,0.145721 0.915968,0.28103 0.551667,0.135318 1.301092,0.135318 0.697387,0 1.28027,-0.166542 0.582891,-0.166543 0.999239,-0.520434 0.42676,-0.353899 0.666163,-0.884743 0.239403,-0.541256 0.239403,-1.311503 0,-0.645341 -0.208179,-1.134549 -0.197767,-0.49962 -0.624526,-0.822294 -0.416349,-0.333077 -1.061689,-0.489209 -0.645341,-0.166543 -1.540495,-0.166543 -0.634929,0 -1.092914,0.06242 -0.457984,0.06242 -0.853518,0.06242 -0.291442,0 -0.416349,-0.13531 -0.124899,-0.135329 -0.124899,-0.520452 V 9.0819208 q 0,-0.343488 0.156132,-0.5100307 0.166535,-0.1665343 0.468387,-0.1665343 h 5.964204 q 0.0833,0 0.156131,0.052013 0.08331,0.04161 0.135319,0.1353181 0.05201,0.093674 0.0729,0.239403 0.03121,0.1457207 0.03121,0.3434881 0,0.3747126 -0.104085,0.5828826 -0.104094,0.2081784 -0.29145,0.2081784 h -5.027413 v 3.778368 q 0.364301,-0.05201 0.739014,-0.06242 0.385124,-0.0104 0.884743,-0.0104 1.155372,0 2.019293,0.28103 0.86393,0.270628 1.43641,0.780658 0.582891,0.49962 0.874332,1.217821 0.301853,0.718201 0.301853,1.592533 z"
            id="path594-1"
            style="fill:#ffffff;" />
    </g>
    <g
        id="Pause"
        transform="translate(2.063315)">
        <path
            d="m 30.656081,30.656079 c 0,-10.21869 0,-20.437386 0,-30.656079 C 20.437387,0 10.218694,0 0,0 c 0,10.218693 0,20.437389 0,30.656079 10.218694,0 20.437387,0 30.656081,0 z m -9.858093,-7.66402 c -0.726279,0 -1.452558,0 -2.178837,0 0,-5.10935 0,-10.21869 0,-15.328039 0.726279,0 1.452558,0 2.178837,0 0,5.109349 0,10.218689 0,15.328039 z m -8.761057,0 c -0.726279,0 -1.452558,0 -2.178837,0 0,-5.10935 0,-10.21869 0,-15.328039 0.726279,0 1.452558,0 2.178837,0 0,5.109349 0,10.218689 0,15.328039 z"
            id="path484"
            style="fill:#ffffff" />
    </g>
    <g
        id="Play"
    >
        <path
            d="M 2.1526455,30.477421 V 0 L 32.630066,15.238711 Z"
            id="path591"
            style="fill:#ffffff" />
    </g>
    <g
        id="Speaker"
    >
        <path
            d="m 25.10354,22.904935 q 1.599428,-1.617812 2.38995,-3.603309 0.790522,-1.985497 0.790522,-4.081299 0,-2.095802 -0.790522,-4.081299 -0.790522,-1.9854964 -2.38995,-3.5665402 -0.330917,-0.3125319 -0.772138,-0.3125319 -0.202227,0 -0.386069,0.073537 -0.202226,0.073537 -0.330916,0.2389949 -0.3493,0.2941477 -0.3493,0.7537535 0,0.4596057 0.3493,0.7537534 1.268512,1.2868963 1.91196,2.8863233 0.625064,1.599428 0.625064,3.272393 0,1.672965 -0.625064,3.272393 -0.643448,1.581044 -1.930344,2.86794 -0.330916,0.330916 -0.330916,0.772137 0,0.459606 0.3493,0.753754 0.312532,0.312532 0.735369,0.312532 0.441222,0 0.753754,-0.312532 z M 21.445078,20.1473 q 0.992748,-0.992748 1.507507,-2.26126 0.514758,-1.268512 0.514758,-2.665713 0,-1.360433 -0.514758,-2.610561 -0.514759,-1.268512 -1.507507,-2.261259 -0.183842,-0.147074 -0.367685,-0.238995 -0.202226,-0.09192 -0.404453,-0.09192 -0.202226,0 -0.404453,0.09192 -0.202226,0.09192 -0.367684,0.238995 -0.312532,0.312531 -0.312532,0.753752 0,0.422838 0.312532,0.772138 0.680216,0.680217 1.066285,1.544275 0.386069,0.845675 0.386069,1.801655 0,0.95598 -0.386069,1.838423 -0.386069,0.882443 -1.066285,1.562659 -0.312532,0.312532 -0.312532,0.753754 0,0.422837 0.312532,0.772137 0.3493,0.312532 0.772137,0.312532 0.422838,0 0.772138,-0.312532 z m 7.280155,5.441732 q 2.077418,-2.077418 3.162088,-4.743131 1.084669,-2.665713 1.084669,-5.625574 0,-2.923093 -1.084669,-5.5704212 -1.08467,-2.6657133 -3.162088,-4.7431312 -0.330916,-0.3125319 -0.772138,-0.3125319 -0.459605,0 -0.772137,0.3125319 -0.312532,0.3125319 -0.312532,0.7537534 0,0.4228373 0.330916,0.7537534 1.764886,1.764886 2.702482,4.0445306 0.937595,2.279644 0.937595,4.761515 0,2.518639 -0.937595,4.7799 -0.937596,2.26126 -2.720866,4.04453 -0.312532,0.3493 -0.312532,0.790522 0,0.404453 0.312532,0.753753 0.294147,0.294148 0.753753,0.294148 0.441222,0 0.790522,-0.294148 z m -12.446124,1.43397 q 0.441222,0.330916 0.827291,0.330916 0.3493,0 0.551527,-0.275763 0.202226,-0.294148 0.202226,-0.82729 V 4.2265581 q 0,-0.5331427 -0.220611,-0.8089061 -0.22061,-0.2941477 -0.569911,-0.2941477 -0.404453,0 -0.82729,0.3493004 -1.893576,1.4707383 -3.382698,2.6289448 -0.643448,0.4963742 -1.250128,0.9743642 -0.606679,0.4596057 -1.084669,0.8272903 -0.496375,0.3676846 -0.7905218,0.6066795 -0.312532,0.238995 -0.330916,0.238995 h -7.188234 q -0.165458,0 -0.275763,0.1654581 -0.12869,0.1470738 -0.12869,0.3493004 v 12.023286 q 0,0.202226 0.12869,0.330916 0.110305,0.110305 0.275763,0.110305 h 7.280155 q 0,0.01838 0.312532,0.257379 0.2941468,0.238995 0.7721368,0.625064 0.47799,0.367685 1.08467,0.845675 0.606679,0.459605 1.250127,0.95598 1.489123,1.139822 3.364314,2.61056 z"
            id="path811"
            style="fill:#ffffff" />
    </g>
</svg>